<svg xmlns="http://www.w3.org/2000/svg" viewBox="0 0 64 64" fill="none" aria-hidden="true">
  <path d="M12 30c0-6 8.5-11 19-11s19 5 19 11-8.5 11-19 11-19-5-19-11Z" stroke="#fff" stroke-width="5" stroke-linejoin="round"/>
  <path d="M12 30v12c0 6 8.5 11 19 11s19-5 19-11V30" stroke="#fff" stroke-width="5" stroke-linejoin="round"/>
  <path d="M12 42c0 6 8.5 11 19 11s19-5 19-11" stroke="#fff" stroke-width="5" stroke-linecap="round"/>
  <path d="M33 13c2.6-1.2 6-2 9.7-2 9.5 0 17.3 4.5 17.3 10s-7.8 10-17.3 10" stroke="#fff" stroke-width="5" stroke-linecap="round" stroke-linejoin="round"/>
  <path d="M60 21v11c0 5-6.6 9.2-15.1 9.9" stroke="#fff" stroke-width="5" stroke-linecap="round"/>
  <path d="M24 30h14" stroke="#fff" stroke-width="4" stroke-linecap="round"/>
</svg>
